<svg viewBox="0 0 100 100" xmlns="http://www.w3.org/2000/svg">
  <circle cx="50" cy="50" r="50" fill="#3E1515"/>
  <path fill="#F0E8D4" d="M2.04,50.00 L10.81,42.21 L5.69,31.65 L16.78,27.80 L16.09,16.09 L27.80,16.78 L31.65,5.69 L42.21,10.81 L50.00,2.04 L57.80,10.81 L68.36,5.69 L72.20,16.78 L83.92,16.09 L83.23,27.80 L94.31,31.65 L89.19,42.21 L97.96,50.00 L89.19,57.80 L94.31,68.36 L83.23,72.20 L83.92,83.92 L72.20,83.23 L68.36,94.31 L57.80,89.20 L50.00,97.96 L42.21,89.20 L31.65,94.31 L27.80,83.23 L16.09,83.92 L16.78,72.20 L5.69,68.36 L10.81,57.80 Z"/>
  <path fill="#3E1515" d="M8.71,41.98 L17.57,36.73 L14.93,26.79 L25.12,25.33 L26.48,15.13 L36.45,17.69 L41.62,8.79 L49.85,14.96 L58.03,8.71 L63.27,17.57 L73.22,14.93 L74.67,25.12 L84.87,26.48 L82.32,36.45 L91.22,41.62 L85.05,49.85 L91.29,58.03 L82.44,63.27 L85.08,73.22 L74.89,74.67 L73.52,84.87 L63.55,82.32 L58.39,91.22 L50.16,85.05 L41.98,91.29 L36.73,82.44 L26.79,85.08 L25.33,74.89 L15.13,73.52 L17.69,63.55 L8.79,58.39 L14.96,50.16 Z"/>
  <path fill="#F0E8D4" d="M14.93,50.00 L21.34,44.30 L17.60,36.58 L25.71,33.77 L25.20,25.20 L33.77,25.71 L36.58,17.60 L44.30,21.34 L50.00,14.93 L55.70,21.34 L63.42,17.60 L66.24,25.71 L74.80,25.20 L74.30,33.77 L82.41,36.58 L78.66,44.30 L85.08,50.00 L78.66,55.70 L82.41,63.42 L74.30,66.24 L74.80,74.80 L66.24,74.30 L63.42,82.41 L55.70,78.66 L50.00,85.08 L44.30,78.66 L36.58,82.41 L33.77,74.30 L25.20,74.80 L25.71,66.24 L17.60,63.42 L21.34,55.70 Z"/>
  <path fill="#3E1515" d="M19.68,44.11 L26.18,40.26 L24.24,32.95 L31.72,31.88 L32.73,24.39 L40.05,26.27 L43.84,19.73 L49.89,24.27 L55.90,19.68 L59.75,26.18 L67.05,24.24 L68.12,31.72 L75.61,32.73 L73.74,40.05 L80.27,43.84 L75.74,49.89 L80.33,55.90 L73.82,59.75 L75.76,67.05 L68.28,68.12 L67.28,75.61 L59.96,73.74 L56.16,80.27 L50.12,75.74 L44.11,80.33 L40.26,73.82 L32.95,75.76 L31.88,68.28 L24.39,67.28 L26.27,59.96 L19.73,56.16 L24.27,50.12 Z"/>
  <path fill="#F0E8D4" d="M24.24,50.00 L28.95,45.82 L26.21,40.15 L32.16,38.08 L31.79,31.79 L38.08,32.16 L40.15,26.21 L45.82,28.95 L50.00,24.24 L54.19,28.95 L59.86,26.21 L61.93,32.16 L68.22,31.79 L67.85,38.08 L73.80,40.15 L71.05,45.82 L75.76,50.00 L71.05,54.19 L73.80,59.86 L67.85,61.93 L68.22,68.22 L61.93,67.85 L59.86,73.80 L54.19,71.05 L50.00,75.76 L45.82,71.05 L40.15,73.80 L38.08,67.85 L31.79,68.22 L32.16,61.93 L26.21,59.86 L28.95,54.19 Z"/>
  <path fill="#3E1515" d="M28.37,45.80 L33.01,43.05 L31.63,37.84 L36.97,37.08 L37.68,31.74 L42.90,33.07 L45.61,28.41 L49.92,31.65 L54.21,28.37 L56.95,33.01 L62.16,31.63 L62.93,36.97 L68.27,37.68 L66.93,42.90 L71.59,45.61 L68.36,49.92 L71.63,54.21 L66.99,56.95 L68.38,62.16 L63.04,62.93 L62.32,68.27 L57.10,66.93 L54.40,71.59 L50.08,68.36 L45.80,71.63 L43.05,66.99 L37.84,68.38 L37.08,63.04 L31.74,62.32 L33.07,57.10 L28.41,54.40 L31.65,50.08 Z"/>
</svg>