<svg width="3738" height="3738" xmlns="http://www.w3.org/2000/svg" xmlns:xlink="http://www.w3.org/1999/xlink" xml:space="preserve" overflow="hidden"><g transform="translate(-80 -80)"><path d="M80.0001 1949 421.738 1645.21 222.268 1233.77 654.256 1083.88 627.41 627.41 1083.88 654.256 1233.77 222.268 1645.21 421.738 1949 80.0001 2252.79 421.738 2664.23 222.268 2814.12 654.256 3270.59 627.41 3243.74 1083.88 3675.73 1233.77 3476.26 1645.21 3818 1949 3476.26 2252.79 3675.73 2664.23 3243.74 2814.12 3270.59 3270.59 2814.12 3243.74 2664.23 3675.73 2252.79 3476.26 1949 3818 1645.21 3476.26 1233.77 3675.73 1083.88 3243.74 627.41 3270.59 654.256 2814.12 222.268 2664.23 421.738 2252.79Z" fill-rule="evenodd"/><path d="M339.646 1635.99 684.708 1431.63 581.828 1044.02 978.836 987.264 1032.12 589.77 1420.62 689.274 1621.97 342.436 1942.82 583.027 2261.56 339.645 2465.92 684.708 2853.53 581.827 2910.29 978.836 3307.78 1032.11 3208.28 1420.62 3555.12 1621.97 3314.53 1942.82 3557.91 2261.56 3212.84 2465.92 3315.72 2853.53 2918.72 2910.29 2865.44 3307.78 2476.93 3208.28 2275.58 3555.12 1954.73 3314.52 1635.99 3557.91 1431.63 3212.84 1044.02 3315.72 987.265 2918.72 589.771 2865.44 689.275 2476.93 342.437 2275.58 583.028 1954.73Z" fill="#FFFFFF" fill-rule="evenodd"/><path d="M582 1949 831.95 1726.81 686.056 1425.88 1002.01 1316.25 982.38 982.38 1316.25 1002.01 1425.88 686.056 1726.81 831.95 1949 582 2171.19 831.95 2472.12 686.056 2581.75 1002.01 2915.62 982.38 2895.99 1316.25 3211.94 1425.88 3066.05 1726.81 3316 1949 3066.05 2171.19 3211.94 2472.12 2895.99 2581.75 2915.62 2915.62 2581.75 2895.99 2472.12 3211.94 2171.19 3066.05 1949 3316 1726.81 3066.05 1425.88 3211.94 1316.25 2895.99 982.38 2915.62 1002.01 2581.75 686.056 2472.12 831.95 2171.19Z" fill-rule="evenodd"/><path d="M766.977 1719.06 1020.4 1568.97 944.844 1284.29 1236.42 1242.61 1275.55 950.677 1560.88 1023.76 1708.76 769.027 1944.4 945.725 2178.49 766.977 2328.58 1020.4 2613.26 944.844 2654.94 1236.42 2946.88 1275.55 2873.8 1560.88 3128.53 1708.76 2951.83 1944.4 3130.57 2178.49 2877.15 2328.58 2952.71 2613.26 2661.13 2654.94 2622 2946.87 2336.67 2873.79 2188.79 3128.52 1953.15 2951.83 1719.06 3130.57 1568.97 2877.15 1284.29 2952.71 1242.61 2661.13 950.677 2622 1023.76 2336.67 769.027 2188.79 945.725 1953.15Z" fill="#FFFFFF" fill-rule="evenodd"/><path d="M945 1949 1128.58 1785.81 1021.42 1564.79 1253.48 1484.27 1239.06 1239.06 1484.27 1253.48 1564.79 1021.42 1785.81 1128.58 1949 945 2112.19 1128.58 2333.21 1021.42 2413.73 1253.48 2658.94 1239.06 2644.52 1484.27 2876.58 1564.79 2769.42 1785.81 2953 1949 2769.42 2112.19 2876.58 2333.21 2644.52 2413.73 2658.94 2658.94 2413.73 2644.52 2333.21 2876.58 2112.19 2769.42 1949 2953 1785.81 2769.42 1564.79 2876.58 1484.27 2644.52 1239.06 2658.94 1253.48 2413.73 1021.42 2333.21 1128.58 2112.19Z" fill-rule="evenodd"/><path d="M1105.83 1784.92 1286.59 1677.87 1232.7 1474.82 1440.67 1445.09 1468.58 1236.86 1672.1 1288.98 1777.58 1107.29 1945.66 1233.32 2112.63 1105.83 2219.68 1286.59 2422.74 1232.7 2452.47 1440.67 2660.7 1468.58 2608.57 1672.1 2790.26 1777.58 2664.23 1945.65 2791.72 2112.63 2610.96 2219.68 2664.86 2422.73 2456.88 2452.47 2428.97 2660.69 2225.45 2608.57 2119.98 2790.26 1951.9 2664.23 1784.92 2791.72 1677.87 2610.96 1474.82 2664.86 1445.09 2456.88 1236.86 2428.97 1288.98 2225.45 1107.29 2119.97 1233.33 1951.9Z" fill="#FFFFFF" fill-rule="evenodd"/></g></svg>